<svg width="420" height="320" viewBox="0 0 420 320" xmlns="http://www.w3.org/2000/svg" role="img" aria-label="TC Simple document intake illustration">
  <defs>
    <linearGradient id="paperGradient" x1="0%" y1="0%" x2="0%" y2="100%">
      <stop offset="0%" stop-color="#E8F2FF"/>
      <stop offset="100%" stop-color="#C8E0FF"/>
    </linearGradient>
    <linearGradient id="circleGradient" x1="0%" y1="0%" x2="100%" y2="100%">
      <stop offset="0%" stop-color="#0F3D91"/>
      <stop offset="100%" stop-color="#0A2C66"/>
    </linearGradient>
  </defs>
  <rect width="420" height="320" rx="28" fill="#F8FAFF"/>
  <circle cx="210" cy="176" r="120" fill="url(#circleGradient)" opacity="0.95"/>
  <rect x="135" y="90" width="150" height="180" rx="18" fill="url(#paperGradient)"/>
  <path d="M250 90L280 120H250Z" fill="#B4D4FF"/>
  <rect x="160" y="130" width="100" height="10" rx="5" fill="#2351A3" opacity="0.65"/>
  <rect x="160" y="155" width="90" height="10" rx="5" fill="#2351A3" opacity="0.5"/>
  <rect x="160" y="180" width="110" height="10" rx="5" fill="#2351A3" opacity="0.35"/>
  <rect x="160" y="205" width="80" height="10" rx="5" fill="#2351A3" opacity="0.3"/>
  <rect x="160" y="230" width="70" height="10" rx="5" fill="#2351A3" opacity="0.25"/>
  <g transform="translate(200 240)">
    <path d="M10 60V20" stroke="#3BD1FF" stroke-width="10" stroke-linecap="round"/>
    <path d="M0 50H40" stroke="#3BD1FF" stroke-width="10" stroke-linecap="round"/>
  </g>
  <circle cx="120" cy="110" r="10" fill="#FFB84D"/>
  <circle cx="300" cy="250" r="8" fill="#FFB84D"/>
  <circle cx="310" cy="140" r="8" fill="#FFB84D" opacity="0.8"/>
</svg>

